PathFileType	4	(X/Y/Z)	/Users/visionmauri/Downloads/Videos/OAW07-top_Sports2D/OAW07-top_Sports2D_m_person00.trc
DataRate	CameraRate	NumFrames	NumMarkers	Units	OrigDataRate	OrigDataStartFrame	OrigNumFrames
30.0	30.0	9	22	m	30.0	715	2861
Frame#	Time	Hip			RHip			RKnee			RAnkle			RBigToe			RSmallToe			RHeel			LHip			LKnee			LAnkle			LBigToe			LSmallToe			LHeel			Neck			Head			Nose			RShoulder			RElbow			RWrist			LShoulder			LElbow			LWrist			
		X1	Y1	Z1	X2	Y2	Z2	X3	Y3	Z3	X4	Y4	Z4	X5	Y5	Z5	X6	Y6	Z6	X7	Y7	Z7	X8	Y8	Z8	X9	Y9	Z9	X10	Y10	Z10	X11	Y11	Z11	X12	Y12	Z12	X13	Y13	Z13	X14	Y14	Z14	X15	Y15	Z15	X16	Y16	Z16	X17	Y17	Z17	X18	Y18	Z18	X19	Y19	Z19	X20	Y20	Z20	X21	Y21	Z21	X22	Y22	Z22
879	29.30968915343915	1.5481415001361545	0.5168750615522675	0.0301	1.5326741018594525	0.48641452790078504	0.0301	1.6542337453785267	0.3828219214213989	0.129	1.754862873780424	0.2986629646591256	0.023	1.790376007382805	0.25173855691251124	0.2179	1.7735759011447647	0.2450822704917238	0.1804	1.7743212687108265	0.28938040987724645	-0.0119	1.5755820219210102	0.5372285068156756	0.0301	1.6979685848081378	0.4346103737722043	0.129	1.796543341906651	0.34801895659271664	0.023	1.8374332242578815	0.3074584833702146	0.2179	1.8448810151831705	0.3235395161410184	0.1804	1.8110699560491086	0.33290742644101706	-0.0119	1.3929021710201306	0.6450627340522345	0.0008	1.3218428650394303	0.6930907332896958	0.0655	1.384117989886216	0.6436053893308248	0.1076	1.3702158455991944	0.5843427130814264	-0.01275	1.4448306377971987	0.5025885671867762	0.0702	1.5076329367505343	0.45291689074705616	0.1076	1.4510945104653605	0.6831789679567417	-0.01275	1.5496243099236926	0.6206444340871855	0.0702	1.6166946292265374	0.5640509535709965	0.1076
880	29.343033509700174	1.5481782926004548	0.5169227992851473	0.0301	1.5326753677772613	0.4864163767298142	0.0301	1.6542399665841196	0.3828200893080699	0.129	1.7548641685829518	0.2986653585995091	0.023	1.790364317163284	0.2517310588572936	0.2179	1.7735766914444724	0.2450891732027515	0.1804	1.7743075798241517	0.2894047811160324	-0.0119	1.5755773919951597	0.5372334335461618	0.0301	1.6979731383301075	0.4346065668005482	0.129	1.7965414108176871	0.34801730198480585	0.023	1.8374195440661123	0.3074369503597015	0.2179	1.8448749313325956	0.3235316944075073	0.1804	1.8110782149020992	0.3329006044796931	-0.0119	1.392962490688351	0.6450118635649054	0.0008	1.3219495085648367	0.6928904339504974	0.0655	1.3841823134961448	0.6435512812954098	0.1076	1.3702824407204954	0.584297314046187	-0.01275	1.4448484012564045	0.5025674972308224	0.0702	1.5075591819493683	0.4530424394724984	0.1076	1.4510949317189967	0.6831783884887243	-0.01275	1.5496539420596052	0.6206302795299142	0.0702	1.6166907933517376	0.5640660857108561	0.1076
881	29.376377865961196	1.5482097839506408	0.5169740305102525	0.0301	1.5326268234915175	0.4864592197849261	0.0301	1.6542416006148977	0.38282179958705037	0.129	1.7548620902518937	0.29866912889904507	0.023	1.7903448020759933	0.2516822831355052	0.2179	1.773541463969523	0.24501936832544904	0.1804	1.7742776749846227	0.28943370441825605	-0.0119	1.5755336312131611	0.5372734170585971	0.0301	1.6979733112257716	0.43460654784162667	0.129	1.796527090453837	0.34800653475083065	0.023	1.8373897269695227	0.3073836169594677	0.2179	1.8448633276215913	0.32351534380453406	0.1804	1.8110965069191214	0.3328850621457777	-0.0119	1.3930120176971201	0.6449645520706024	0.0008	1.322003092988856	0.6927507917662424	0.0655	1.384269855875545	0.6434760496357271	0.1076	1.3703409145245125	0.5842686085052706	-0.01275	1.4449024629266674	0.5025419876351189	0.0702	1.507469336128557	0.45321219262238166	0.1076	1.451128352983582	0.6831545142156602	-0.01275	1.5497252170182738	0.6206024549084884	0.0702	1.616735798330571	0.5640600912590015	0.1076
882	29.409722222222218	1.5480746590833678	0.516832558703021	0.0301	1.5325270587590578	0.4865294862996556	0.0301	1.6542125265693273	0.3828347103330637	0.129	1.7548509317410088	0.29866451696910107	0.023	1.7903670216734737	0.25162907549167673	0.2179	1.7734702733522756	0.24485347188404888	0.1804	1.7742923056224305	0.2893650742380932	-0.0119	1.575474973288412	0.5373232685274903	0.0301	1.6979497473953316	0.43462598569269617	0.129	1.7965099781679625	0.34799481917461256	0.023	1.837404661553878	0.30739075616566996	0.2179	1.8448715740062531	0.3235222001215765	0.1804	1.8110867924889749	0.33289139038538934	-0.0119	1.3927903806977002	0.6451408705357122	0.0008	1.3215494477332665	0.6935286252184392	0.0655	1.3840963121541492	0.643622917003977	0.1076	1.370106059951619	0.5844516183205399	-0.01275	1.4449058707303262	0.5026081884499981	0.0702	1.5076744756641713	0.4528894242543333	0.1076	1.4511857104225252	0.6831145728739596	-0.01275	1.5496988634243656	0.6206267322671021	0.0702	1.6168390221276292	0.5639723248314047	0.1076
883	29.443066578483243	1.5476565171354806	0.5163059593633198	0.0301	1.5325862281266864	0.4864431428001619	0.0301	1.6541498863920319	0.3828498588454223	0.129	1.7548404469151608	0.29863658154912903	0.023	1.7905084186590063	0.2517779052745573	0.2179	1.773515584342073	0.24489718548922515	0.1804	1.7744730344393802	0.2890885835379708	-0.0119	1.5755880802096351	0.5372129315012325	0.0301	1.697904873972813	0.43466217189981976	0.129	1.7965510726239793	0.348027905607019	0.023	1.837585855007336	0.30767562107734037	0.2179	1.8449462010940598	0.323616963455008	0.1804	1.810974490245059	0.33298313778687927	-0.0119	1.3921160714208805	0.6457178404861152	0.0008	1.3204175648087861	0.6957152367553914	0.0655	1.383316517357486	0.6442891047492877	0.1076	1.3693614443258149	0.5849462077157838	-0.01275	1.4446332810414242	0.5028661765228479	0.0702	1.5085198105205715	0.4514125910409495	0.1076	1.4511213346633092	0.6831625658259037	-0.01275	1.5492810939687889	0.6208158967287852	0.0702	1.6168037044856498	0.5638374601894216	0.1076
884	29.476410934744266	1.547199406225316	0.5156097580359156	0.0301	1.5332075276467088	0.48592152980129266	0.0301	1.6541804402146887	0.3828122707980497	0.129	1.7548777525866204	0.2986073270784514	0.023	1.7907064165050517	0.25238322614012226	0.2179	1.7738354530567764	0.24567374405956321	0.1804	1.7748875181220578	0.2886952167647734	-0.0119	1.5761011473360484	0.536750133017981	0.0301	1.6979408301913264	0.434630968422466	0.129	1.796760685054611	0.3482030189009972	0.023	1.8379606250182419	0.30830598731264514	0.2179	1.8451244736549661	0.3238546722410447	0.1804	1.810707735553903	0.33321232107881976	-0.0119	1.3913813338266354	0.6464079555668657	0.0008	1.3194117207167622	0.6979486705348004	0.0655	1.3821125227347566	0.6453288805435622	0.1076	1.3684773540026345	0.5853821254193121	-0.01275	1.4439846125571278	0.5031627508729384	0.0702	1.509727659719807	0.4492118466356602	0.1076	1.4507232220217017	0.6834434499169337	-0.01275	1.5484022017760997	0.6211987249418223	0.0702	1.6163485446133503	0.5638741054621557	0.1076
885	29.509755291005288	1.5470263750372488	0.5152338997690892	0.0301	1.5344128918517324	0.48504337626904936	0.0301	1.6544816489510081	0.3826714810483868	0.129	1.7550079877631757	0.29863742728232623	0.023	1.7906613625482286	0.253272439136868	0.2179	1.7741685364773692	0.24703715271226176	0.1804	1.7754518508183237	0.2884070155208922	-0.0119	1.5768374455634255	0.53611826841714	0.0301	1.6981896067783424	0.4344280712447622	0.129	1.7971928593677111	0.34859166079799375	0.023	1.8383647295269367	0.3089257632056016	0.2179	1.8454270043737853	0.3242306404614965	0.1804	1.8103184768032996	0.33356428031482427	-0.0119	1.3911463613203168	0.6467359626915264	0.0008	1.3191132593330914	0.6987283300283149	0.0655	1.3810809112939926	0.6462510649000603	0.1076	1.3679903079375573	0.5853003436874157	-0.01275	1.4432389661433982	0.5031631174388623	0.0702	1.5105546023981595	0.44774972270266084	0.1076	1.4500710962266712	0.6838980244960534	-0.01275	1.547548955405153	0.6216482405510304	0.0702	1.6157071877651787	0.5641733056729333	0.1076
886	29.54309964726631	1.5469729688430198	0.5153339821861177	0.0301	1.5354230945567053	0.4843771652334388	0.0301	1.6549023765310826	0.3825158505193969	0.129	1.755172425859458	0.29869017137473264	0.023	1.7902171957017359	0.2538174873968201	0.2179	1.7741286091463082	0.24802814176114268	0.1804	1.7759223487964948	0.2882727337131689	-0.0119	1.5771573698282473	0.5358485063796204	0.0301	1.698506034905109	0.43414896162696104	0.129	1.7976905299630415	0.34903920119042103	0.023	1.8386437346427162	0.30911291123095536	0.2179	1.8458216406359464	0.3246357486620264	0.1804	1.8099336054848798	0.33389149217623987	-0.0119	1.3913780189846274	0.6465988082242838	0.0008	1.318931438906985	0.6986363971095281	0.0655	1.380581558018249	0.6467312517358642	0.1076	1.367857630315993	0.584820849121888	-0.01275	1.4427285182043812	0.5028967975009856	0.0702	1.5107516592087942	0.44763666313479944	0.1076	1.449576877028726	0.6842361058368895	-0.01275	1.5472883834508544	0.6219493463401468	0.0702	1.6154804704929304	0.5644448413983012	0.1076
887	29.576444003527335	1.5466789695495613	0.5156383593155841	0.0301	1.5354147105556204	0.48432491354800966	0.0301	1.6549966098009086	0.3825312512373278	0.129	1.7552264411166676	0.2985927485207237	0.023	1.78976302881556	0.2538443309571486	0.2179	1.7738744226755654	0.24810994009779114	0.1804	1.7760004214107639	0.28819459762674104	-0.0119	1.57658828121656	0.5361962237179899	0.0301	1.6984786166919563	0.4340204622107191	0.129	1.7979670069127505	0.34920045137592154	0.023	1.8388279589750989	0.3088828149512325	0.2179	1.846196158976497	0.3249454446424287	0.1804	1.8096283977610184	0.3339736129953809	-0.0119	1.3917975614508666	0.6460049935565326	0.0008	1.3186939333135828	0.6984592164660648	0.0655	1.3809344639477965	0.6463873765827743	0.1076	1.367799086415423	0.5843422457630012	-0.01275	1.4425458984713673	0.5027491887923488	0.0702	1.5106413891432353	0.44805128141660777	0.1076	1.4494558828172819	0.6842498180648605	-0.01275	1.547576754740933	0.6219268704933472	0.0702	1.6156243881531143	0.5644013005236949	0.1076
